<?xml version="1.0" encoding="UTF-8" standalone="no"?>
<!-- Uploaded to: SVG Repo, www.svgrepo.com, Generator: SVG Repo Mixer Tools -->

<svg
   height="620.61407"
   width="800"
   version="1.1"
   id="Layer_1"
   viewBox="0 0 512 397.19301"
   xml:space="preserve"
   xmlns="http://www.w3.org/2000/svg"
   xmlns:svg="http://www.w3.org/2000/svg"><defs
   id="defs8" />
<path
   style="fill:#00bcd4"
   d="m 197.407,198.649 c 0,-65.497 67.941,-118.593999 151.75,-118.593999 83.809,0 151.75,53.095999 151.75,118.593999 0,55.34 -48.503,101.826 -114.098,114.912 -2.36,18.201 -3.356,49.353 11.9,72.534 0,0 -65.163,-25.113 -94.779,-74.211 -61.721,-15.04 -106.523,-60.048 -106.523,-113.235 z"
   id="path1" />
<path
   style="display:inline;fill:#ffc107;stroke:none;stroke-width:0.99968;stroke-dasharray:none;stroke-opacity:1"
   d="m 314.593,129.69 c 0,-65.496999 -67.941,-118.593999 -151.75,-118.593999 -83.809,0 -151.748,53.096 -151.748,118.593999 0,55.34 48.503,101.825 114.098,114.912 2.36,18.201 3.356,49.352 -11.9,72.534 0,0 65.163,-25.113 94.779,-74.211 61.72,-15.039 106.521,-60.048 106.521,-113.235 z"
   id="path2" />
<g
   id="g8"
   style="fill:#ffffff"
   transform="translate(0,-57.403999)">
	<path
   style="fill:#ffffff"
   d="m 100.773,175.996 c -2.929,0 -5.781,1.186 -7.844,3.251 -2.064,2.063 -3.251,4.925 -3.251,7.844 0,2.918 1.187,5.781 3.251,7.843 2.064,2.064 4.915,3.252 7.844,3.252 2.918,0 5.781,-1.187 7.844,-3.252 2.064,-2.063 3.251,-4.925 3.251,-7.843 0,-2.919 -1.187,-5.782 -3.251,-7.844 -2.064,-2.065 -4.926,-3.251 -7.844,-3.251 z"
   id="path3" />
	<path
   style="fill:#ffffff"
   d="m 378.348,310.375 c -1.153,0.264 -2.313,0.514 -3.486,0.748 -6.009,1.201 -9.906,7.047 -8.705,13.055 1.055,5.276 5.687,8.923 10.868,8.923 0.721,0 1.453,-0.07 2.187,-0.217 1.376,-0.275 2.741,-0.568 4.093,-0.878 5.973,-1.369 9.705,-7.322 8.336,-13.293 -1.368,-5.975 -7.316,-9.713 -13.293,-8.338 z"
   id="path4" />
	<path
   style="fill:#ffffff"
   d="m 432.547,202.792 c -4.828,-3.772 -11.801,-2.918 -15.574,1.909 -3.773,4.829 -2.918,11.802 1.909,15.574 7.842,6.129 20.999,18.928 20.999,35.777 0,15.676 -11.941,31.771 -31.941,43.053 -5.338,3.011 -7.223,9.778 -4.213,15.115 2.039,3.615 5.801,5.646 9.674,5.646 1.846,0 3.718,-0.462 5.441,-1.434 27.069,-15.269 43.229,-38.588 43.229,-62.381 0,-26.262 -18.498,-44.641 -29.524,-53.259 z"
   id="path5" />
	<path
   style="fill:#ffffff"
   d="m 162.839,175.996 c -6.125,0 -11.095,4.97 -11.095,11.095 0,6.135 4.971,11.095 11.095,11.095 6.136,0 11.106,-4.961 11.106,-11.095 0.001,-6.125 -4.97,-11.095 -11.106,-11.095 z"
   id="path6" />
	<path
   style="fill:#ffffff"
   d="m 224.917,175.996 c -2.918,0 -5.781,1.186 -7.844,3.251 -2.064,2.063 -3.251,4.925 -3.251,7.844 0,2.918 1.187,5.781 3.251,7.843 2.064,2.064 4.926,3.252 7.844,3.252 2.918,0 5.781,-1.187 7.844,-3.252 2.064,-2.063 3.251,-4.925 3.251,-7.843 0,-2.919 -1.187,-5.782 -3.251,-7.844 -2.063,-2.065 -4.926,-3.251 -7.844,-3.251 z"
   id="path7" />
	<path
   style="fill:#ffffff"
   d="M 512,256.053 C 512,220.887 494.701,188 463.291,163.452 432.688,139.535 392.154,126.364 349.156,126.364 c -13.587,0 -26.923,1.33 -39.781,3.886 C 301.343,117.114 290.466,105.033 276.979,94.492 246.376,70.575 205.842,57.404 162.844,57.404 119.846,57.404 79.312,70.576 48.709,94.493 17.299,119.041 0,151.926 0,187.094 c 0,57.383 46.88,107.462 114.991,124.017 1.278,16.179 0.553,39.829 -10.965,57.33 -2.651,4.028 -2.397,9.307 0.629,13.06 2.151,2.67 5.353,4.135 8.642,4.135 1.337,0 2.687,-0.243 3.988,-0.743 2.534,-0.976 56.841,-22.284 90.333,-64.541 3.539,4.93 7.499,9.704 11.887,14.292 19.853,20.76 46.535,36.017 77.386,44.296 32.106,49.151 95.094,73.86 97.828,74.914 1.3,0.5 2.651,0.743 3.988,0.743 3.288,-10e-4 6.491,-1.465 8.642,-4.135 3.026,-3.755 3.28,-9.034 0.628,-13.061 -11.518,-17.499 -12.244,-41.15 -10.965,-57.329 C 465.121,363.514 512,313.435 512,256.053 Z M 205.446,289.55 c -2.873,0.7 -5.347,2.518 -6.874,5.049 -15.965,26.467 -43.669,45.732 -63.991,57.194 4.184,-18.097 3.504,-36.651 1.615,-51.213 -0.612,-4.719 -4.165,-8.523 -8.832,-9.454 C 65.44,278.771 22.19,235.991 22.19,187.094 c 0,-59.275 63.098,-107.498 140.654,-107.498 77.556,0 140.654,48.223 140.654,107.498 0,46.989 -39.405,88.165 -98.052,102.456 z m 179.189,70.535 c -4.667,0.931 -8.22,4.735 -8.832,9.454 -1.888,14.561 -2.566,33.118 1.615,51.212 -20.324,-11.462 -48.026,-30.726 -63.991,-57.194 -1.527,-2.531 -4.001,-4.349 -6.874,-5.049 -35.854,-8.737 -64.499,-27.528 -81.359,-51.546 26.584,-8.72 49.648,-22.815 67.302,-41.277 21.714,-22.709 33.193,-49.884 33.193,-78.592 0,-12.404 -2.161,-24.522 -6.327,-36.093 9.607,-1.592 19.571,-2.447 29.794,-2.447 77.557,0 140.654,48.223 140.654,107.498 0,48.898 -43.25,91.678 -105.175,104.034 z"
   id="path8" />
</g>
</svg>
