<?xml version="1.0" encoding="UTF-8" standalone="no"?>
<!-- Uploaded to: SVG Repo, www.svgrepo.com, Generator: SVG Repo Mixer Tools -->

<svg
   height="800"
   width="799.86621"
   version="1.1"
   id="Layer_1"
   viewBox="0 0 392.53234 392.598"
   xml:space="preserve"
   xmlns="http://www.w3.org/2000/svg"
   xmlns:svg="http://www.w3.org/2000/svg"><defs
   id="defs11" />
<g
   id="g2"
   transform="translate(-0.03283925)">
	<path
   style="fill:#ffd761;fill-opacity:1"
   d="m 185.248,312.566 -43.572,46.545 c -4.719,4.784 -11.442,4.461 -15.903,0 L 82.395,312.824 c -4.008,2.78 -8.598,4.848 -13.446,6.077 -38.723,10.02 -45.188,18.489 -45.899,19.394 -1.745,3.491 -1.552,17.455 0.323,32.388 h 220.638 c 1.875,-14.933 2.069,-28.897 0.259,-32.517 -0.517,-0.776 -7.046,-9.18 -45.123,-19.135 -5.108,-1.294 -9.827,-3.556 -13.899,-6.465 z"
   id="path1" />
	<path
   style="fill:#ffd761;fill-opacity:1"
   d="m 170.896,296.016 c -0.646,-1.164 -1.164,-2.327 -1.681,-3.556 -10.731,7.434 -22.885,11.636 -35.556,11.636 -12.412,0 -24.372,-4.202 -34.974,-11.378 -0.517,1.228 -1.164,2.457 -1.745,3.685 l 36.784,39.24 z"
   id="path2" />
</g>
<g
   id="g4"
   transform="translate(-0.03283925)">
	<path
   style="fill:#ffffff"
   d="m 275.688,181.139 26.828,-31.095 c -8.339,4.719 -17.39,7.434 -26.828,7.434 -10.15,0 -19.911,-3.168 -28.768,-8.663 z"
   id="path3" />
	<path
   style="fill:#ffffff"
   d="m 210.848,207.386 c 0,1.552 -0.129,3.038 -0.259,4.461 0,0.065 0.065,0.065 0.065,0.129 h 158.901 c 1.422,-11.766 1.552,-22.949 0.259,-25.988 -1.616,-2.392 -11.766,-8.857 -38.012,-15.774 -4.073,-1.099 -7.887,-2.844 -11.378,-5.107 l -36.848,39.305 c -4.331,4.396 -11.378,4.655 -15.903,0 l -36.655,-39.111 c -3.297,2.069 -7.046,3.814 -10.99,4.848 -5.43,1.422 -10.408,2.844 -14.933,4.331 3.749,10.021 5.753,21.011 5.753,32.906 z"
   id="path4" />
</g>
<path
   style="fill:#c0e1f3;fill-opacity:1"
   d="m 133.62716,282.376 c 27.345,0 52.364,-31.806 55.079,-68.461 -25.406,-4.719 -41.697,-17.002 -50.941,-26.828 -10.99,13.511 -31.16,33.293 -57.728999,37.624 6.269,31.806 28.959999,57.665 53.590999,57.665 z"
   id="path5" />
<path
   style="fill:#ffffff"
   d="m 78.419161,202.667 c 29.219999,-6.077 49.518999,-39.24 49.777999,-39.628 2.004,-3.426 5.689,-5.43 9.762,-5.301 3.943,0.129 7.564,2.392 9.374,5.947 0.453,0.84 11.313,20.234 39.952,27.604 -5.818,-26.634 -26.182,-44.218 -53.657,-44.218 -31.161,0.064 -53.269999,22.691 -55.208999,55.596 z"
   id="path6" />
<path
   style="fill:#ffd762;fill-opacity:1"
   d="m 275.65516,135.693 c 22.562,0 43.249,-26.117 45.964,-56.436 -20.558,-4.073 -34.263,-13.899 -42.343,-22.174 -9.568,11.507 -26.376,27.345 -48.226,31.547 5.688,26.117 24.306,47.063 44.605,47.063 z"
   id="path7" />
<path
   style="fill:#bfe1f3;fill-opacity:1"
   d="m 229.49716,66.586 c 23.273,-6.077 39.952,-32.905 40.21,-33.228 2.004,-3.426 5.818,-5.43 9.762,-5.301 3.943,0.129 7.564,2.392 9.374,5.947 0.388,0.711 8.857,15.903 31.224,22.497 -5.56,-21.01 -22.238,-34.715 -44.347,-34.715 -25.6,0 -43.895,18.166 -46.223,44.8 z"
   id="path8" />
<g
   id="g11"
   transform="translate(-0.03283925)">
	<path
   style="fill:#d69729;fill-opacity:1"
   d="m 359.534,263.564 c -6.012,0 -10.925,4.848 -10.925,10.925 v 74.085 h -49.196 c -6.012,0 -10.925,4.848 -10.925,10.925 0,6.012 4.849,10.925 10.925,10.925 h 60.121 c 6.012,0 10.925,-4.849 10.925,-10.925 v -85.01 c -0.064,-6.077 -4.912,-10.925 -10.925,-10.925 z"
   id="path9" />
	<path
   style="fill:#d69729;fill-opacity:1"
   d="m 33.07,124.768 c 6.012,0 10.925,-4.848 10.925,-10.925 V 43.96 h 89.665 c 6.012,0 10.925,-4.848 10.925,-10.925 0,-6.077 -4.848,-10.925 -10.925,-10.925 H 33.07 c -6.012,0 -10.925,4.848 -10.925,10.925 v 80.808 c 0.064,6.076 4.913,10.925 10.925,10.925 z"
   id="path10" />
	<path
   style="fill:#a0701f;fill-opacity:1"
   d="m 388.108,174.222 c -4.073,-6.077 -13.77,-15.321 -50.747,-25.018 -7.822,-2.004 -13.188,-9.244 -13.705,-17.778 12.283,-15.515 20.105,-36.655 20.105,-59.022 C 343.761,30.448 315.122,0 275.623,0 c -39.499,0 -68.137,30.448 -68.137,72.404 0,22.82 8.016,44.154 20.622,59.733 -0.711,8.21 -6.012,15.063 -13.511,17.002 -7.434,1.939 -14.093,3.943 -20.04,6.012 -13.77,-18.554 -35.297,-29.931 -60.897,-29.931 -44.735,0 -77.188,34.521 -77.188,82.036 0,26.182 9.374,50.747 23.984,68.59 -0.646,10.537 -7.37,19.394 -17.002,21.915 -47.903,12.477 -55.919,24.566 -58.57,28.509 -8.275,12.347 -3.943,44.154 -1.681,57.277 0.905,5.172 5.43,9.051 10.731,9.051 H 253.32 c 5.301,0 9.826,-3.814 10.731,-9.051 2.263,-13.059 6.594,-44.865 -1.681,-57.277 -2.651,-3.943 -10.667,-15.903 -57.794,-28.25 -9.891,-2.651 -16.873,-11.895 -17.131,-22.691 9.18,-11.507 16.226,-25.729 20.04,-41.438 h 171.442 c 5.301,0 9.826,-3.814 10.731,-9.051 2.588,-14.286 5.626,-39.886 -1.55,-50.618 z M 133.66,147.135 c 27.41,0 47.774,17.519 53.657,44.218 -28.638,-7.37 -39.499,-26.764 -39.952,-27.604 -1.745,-3.556 -5.43,-5.818 -9.374,-5.947 -4.008,-0.065 -7.628,1.939 -9.762,5.301 -0.259,0.388 -20.558,33.552 -49.778,39.628 1.94,-32.969 24.049,-55.596 55.209,-55.596 z m 65.422,171.895 c 38.077,9.956 44.606,18.36 45.123,19.135 1.875,3.62 1.616,17.648 -0.259,32.517 H 23.373 c -1.875,-14.869 -2.069,-28.897 -0.323,-32.388 0.646,-0.905 7.176,-9.374 45.899,-19.394 4.848,-1.228 9.438,-3.426 13.446,-6.077 l 43.378,46.287 c 4.396,4.461 11.119,4.784 15.903,0 l 43.572,-46.545 c 4.072,2.91 8.791,5.172 13.834,6.465 z M 96.876,296.469 c 0.646,-1.228 1.228,-2.392 1.745,-3.685 10.667,7.176 22.562,11.378 34.974,11.378 12.606,0 24.76,-4.331 35.556,-11.636 0.453,1.228 1.099,2.392 1.681,3.556 l -37.236,39.693 z m 36.784,-14.093 c -24.63,0 -47.321,-25.794 -53.657,-57.665 26.57,-4.396 46.804,-24.178 57.729,-37.624 9.18,9.891 25.471,22.174 50.941,26.893 -2.65,36.46 -27.668,68.396 -55.013,68.396 z M 275.688,135.693 c -20.17,0 -38.853,-20.945 -44.541,-47.063 21.85,-4.202 38.659,-20.04 48.226,-31.547 8.145,8.275 21.721,18.101 42.343,22.174 -2.844,30.319 -23.466,56.436 -46.028,56.436 z m 26.699,14.351 -26.828,31.095 -28.768,-32.323 c 8.857,5.495 18.618,8.663 28.768,8.663 9.438,0 18.553,-2.715 26.828,-7.435 z M 275.688,21.786 c 22.109,0 38.788,13.705 44.347,34.715 -22.303,-6.594 -30.836,-21.786 -31.224,-22.497 -1.745,-3.556 -5.43,-5.818 -9.374,-5.947 -3.943,-0.065 -7.758,1.939 -9.762,5.301 -0.129,0.323 -16.873,27.152 -40.21,33.228 2.393,-26.634 20.688,-44.8 46.223,-44.8 z M 369.619,212.04 H 210.783 c 0,-0.065 -0.065,-0.065 -0.065,-0.129 0.065,-1.552 0.259,-3.038 0.259,-4.461 0,-11.83 -2.004,-22.885 -5.689,-32.776 4.461,-1.487 9.503,-2.909 14.933,-4.331 3.943,-1.034 7.628,-2.715 10.99,-4.848 l 36.655,39.111 c 4.59,4.655 11.572,4.396 15.903,0 l 36.848,-39.305 c 3.491,2.263 7.24,4.008 11.378,5.107 26.246,6.853 36.396,13.382 38.012,15.774 1.164,2.909 1.035,14.093 -0.388,25.858 z"
   id="path11" />
</g>
</svg>
